<?xml version="1.0" encoding="UTF-8"?>
<svg width="2172px" height="202px" viewBox="0 0 2172 202" version="1.1" xmlns="http://www.w3.org/2000/svg" xmlns:xlink="http://www.w3.org/1999/xlink">
    <!-- Generator: Sketch 46.2 (44496) - http://www.bohemiancoding.com/sketch -->
    <title>Flat</title>
    <desc>Created with Sketch.</desc>
    <defs/>
    <g id="Spec" stroke="none" stroke-width="1" fill="none" fill-rule="evenodd">
        <g id="Flat" fill="#CFE6C1">
            <path d="M442.321499,201.967209 L731.458213,201.967209 L2172.34056,204 C2172.66813,195.354234 2172.66813,190.947333 2172.34056,190.779297 C2082.93868,144.917887 1970.84291,122.254993 1915.66087,122.254993 C1826.55996,122.254993 1786.61538,76.3398438 1721.46946,76.3398438 C1656.32355,76.3398438 1602.88553,104.349155 1545.37962,104 C1487.87371,103.650845 1403.82516,13.9797341 1294.06194,15.7218392 C1184.29872,17.4639443 1211.17712,23.7655683 1133.18884,33.7873104 C1055.20056,43.8090525 1030.15374,4 966.442121,4 C902.730505,4 853.715558,50.1147193 800.699933,50.1147193 C747.684308,50.1147193 728.182187,27.325424 676.449933,27.325424 C624.717679,27.325424 603.262433,65.8203088 523.465558,65.8203088 C443.668683,65.8203088 454.379621,50.1147193 367.723371,50.1147193 C300.494132,50.1147193 -0.0231182884,178.674455 0.340558065,178.503906 C-0.390301544,178.846649 0.27219869,204 0.340558065,204 C0.22532369,204 147.552304,203.322403 442.321499,201.967209 Z" id="Path-3-Copy-8" opacity="0.400883152" transform="translate(1086.293117, 104.000000) scale(-1, 1) translate(-1086.293117, -104.000000) "/>
            <path d="M320.895306,202.185588 L617.038332,202.185588 L2172.37549,204 C2173.13016,186.403322 2173.13016,177.430666 2172.37549,177.082031 C2167.31492,174.744184 1870.45197,78.1339406 1811.35711,78.1339406 C1720.09713,78.1339406 1658.94246,64.2694035 1564.20901,64.2694035 C1469.47557,64.2694035 1439.83354,87.1113017 1380.93416,86.7014424 C1322.03477,86.2915831 1253.78298,34.0134775 1141.36,36.058466 C1028.93702,38.1034546 1030.28318,51.9425978 946.584537,64.2694035 C862.885894,76.5962092 849.864706,64.2694035 784.609241,64.2694035 C719.353777,64.2694035 671.135651,86.4355604 639.345836,86.4355604 C607.556021,86.4355604 534.74189,64.2694035 485.554871,64.2694035 C436.367852,64.2694035 425.141115,120.050459 242.211428,120.050459 C117.443445,120.050459 31.4645944,166.775804 0.375490143,191.609375 C-30.7136141,216.442946 -8.0249592,204 -23.5854474,204 C-56.2125887,204 58.614329,203.395196 320.895306,202.185588 Z" id="Path-3-Copy-9" opacity="0.496490036"/>
        </g>
    </g>
</svg>