<?xml version="1.0" encoding="UTF-8"?>
<!-- Generator: Adobe Illustrator 16.0.0, SVG Export Plug-In . SVG Version: 6.00 Build 0)  -->
<!DOCTYPE svg PUBLIC "-//W3C//DTD SVG 1.1//EN" "http://www.w3.org/Graphics/SVG/1.1/DTD/svg11.dtd">
<svg version="1.1" id="Layer_1" xmlns="http://www.w3.org/2000/svg" xmlns:xlink="http://www.w3.org/1999/xlink" x="0px" y="0px" width="292.012px" height="72.549px" viewBox="0 0 292.012 72.549" enable-background="new 0 0 292.012 72.549" xml:space="preserve">
<g>
	<g>
		<path fill="#23519C" d="M272.026,55.458l0.023-0.062l-1.197-1.844h-0.045l-1.027,1.699l0.014,0.047L272.026,55.458z     M269.534,49.032l-0.031,0.07l1.311,2.355h0.064l1.184-2.312l-0.027-0.057L269.534,49.032z M268.499,49.471l-0.047,0.039    l0.154,5.445l0.049,0.041l1.455-2.537l-0.004-0.074L268.499,49.471z M273.356,55.221l0.018-5.928l-0.045-0.043l-1.75,3.174    l0.006,0.059l1.732,2.785L273.356,55.221z M265.003,34.143h-0.078c0.041,0.959,0.121,2.607,0.121,2.607l0.76,1.355    c0.266,0.439,2.291,10.064,2.291,10.064l2.537-1.266c-0.236-0.32-0.369-0.73-0.363-1.18c0-0.189,0.021-0.367,0.07-0.537    c-0.094-0.018-0.715-0.096-0.822-0.281c-0.109-0.189-0.166-2.189,0.074-2.67c-0.037-0.084-0.09-0.182-0.184-0.299    c-0.357-0.469-1.824-2.088-1.799-2.361c0.016-0.248,0.283-0.578,0.283-0.578L265.003,34.143z M251.909,63.008    c-0.041-0.152-0.297-2.467-0.357-3.051c-2.707-0.232-4.002-0.477-4.344-0.889c-0.375-0.453,3.113-21.623,3.371-21.998    c0.174-0.246,1.025-0.896,1.113-1.123c0.082-0.199,0.02-4.571,0.006-5.657h-0.127c-0.166,0-4.764,4.497-6.252,4.338    c-1.072-0.111-2.24-0.742-2.828-1.102l2.375,37.493c2.576,0.799,5.271,1.318,8.057,1.529l0.785-1.283l0.023-2.033l-1.1-5.865    C252.632,63.368,251.954,63.186,251.909,63.008z M255.685,0c-5.396,0-10.508,1.175-15.111,3.283l1.34,21.105    c0.564-0.07,1.004-0.086,1.066,0.004c0.174,0.246,0.85,1.9,0.916,2.197c0.041,0.18-0.039,0.383-0.174,0.584    c0.641,0.188,1.801,0.512,1.84,0.512c0,0,3.258-4.408,4.203-4.953c0.246-0.143,2.844-1.309,3.92-1.791    c0.113-0.123,0.184-0.244,0.197-0.359c0.045-0.406,0.279-2.34,0.33-2.816c0.039-0.34,0.77-0.99,0.926-1.5    c0.148-0.51,0.109-3.031,0.168-3.257c0.088-0.386,2.209-1.799,2.734-2.143c0.316-0.216,2.717-0.112,3.045-0.05    c1.043,0.195,1.922,1.134,1.934,1.465c0.008,0.329-0.107,3.748-0.107,3.748c0,0.303,1.182,2.203,1.182,2.787    c0,0.586-0.123,1.936-0.123,2.23c0,0.08,0.07,0.281,0.162,0.529c0.742,0.447,3.441,2.08,3.906,2.375    c0.543,0.336,2.25,8.133,2.25,8.133l2.244,4.379c0,0,0.648-0.178,0.803-0.057c0.164,0.121,0.35,5.191,0.35,5.191v0.006    c0.289,0.57,1.02,2.049,1.02,2.498c0,0.537-0.539,1.002-1.143,1.357c0.014,0.096,0.025,0.191,0.025,0.293    c-0.008,0.482-0.176,0.922-0.447,1.25c0.82,0.402,2.201,1.098,2.201,1.191c0,0.316,0.033,0.59-0.014,7.879    c0,0-0.904,0.727-0.98,0.727c-0.055,0-3.076-0.174-4.988-0.303c0.131,1.418,0.203,2.574,0.117,2.922    c-0.855,0.424-3.102,0.656-4.609,0.764c-0.314,1.129-1.307,4.645-1.566,4.629c-0.312-0.014-0.619-0.01-0.619-0.01    s-1.883,2.699-1.896,2.951c-0.014,0.25,0.705,2.564,0.705,2.564l1.818,1.533c16.399-3.498,28.704-18.07,28.704-35.525    C292.012,16.266,275.747,0,255.685,0z"/>
		<path fill="#1B3D6E" d="M238.843,31.061c-0.465-0.414-1.266-2.289-1.223-3.359c0.045-1.027,0.713-2.24,0.943-2.607    c0.053-0.084,0.27-0.182,0.578-0.275l-1.291-20.375c-11.27,6.168-18.912,18.131-18.912,31.885c0,15.383,9.573,28.5,23.078,33.799    l-2.453-38.694C239.294,31.344,239.032,31.229,238.843,31.061z"/>
	</g>
	<g>
		<path fill="#1A3E6E" d="M115.109,19.057c1.535,0,2.766,1.227,2.766,2.764c0,1.533-1.23,2.717-2.766,2.717    c-1.537,0-2.721-1.184-2.721-2.717C112.388,20.284,113.572,19.057,115.109,19.057z"/>
		<path fill="#1A3E6E" d="M113.048,29.923c0-0.426,0.348-0.779,0.773-0.779h2.615c0.428,0,0.779,0.354,0.779,0.779v19.848h-3.395    c-0.426,0-0.773-0.352-0.773-0.777V29.923z"/>
		<path fill="#1A3E6E" d="M151.47,19.057c1.539,0,2.766,1.227,2.766,2.764c0,1.533-1.227,2.717-2.766,2.717    c-1.535,0-2.719-1.184-2.719-2.717C148.751,20.284,149.935,19.057,151.47,19.057z"/>
		<path fill="#1A3E6E" d="M149.407,29.923c0-0.426,0.352-0.779,0.777-0.779h2.613c0.428,0,0.781,0.354,0.781,0.779v19.848h-3.395    c-0.426,0-0.777-0.352-0.777-0.777V29.923z"/>
		<path fill="#1A3E6E" d="M142.173,18.618h-2.613c-0.432,0-0.777,0.348-0.777,0.777v11.55c-1.844-1.537-4.082-2.236-6.322-2.236    c-1.93,0-3.641,0.48-5.045,1.316c-3.117,1.842-5.308,5.307-5.308,9.434c0,4.125,2.148,7.547,5.265,9.391    c1.404,0.832,3.336,1.361,5.18,1.361c2.455,0,4.691-0.834,6.359-2.326v1.109c0,0.426,0.348,0.777,0.777,0.777h3.262V19.395    C142.95,18.965,142.601,18.618,142.173,18.618z M138.782,43.318c-1.406,1.889-3.557,2.943-5.662,2.943    c-3.992,0-6.845-3.119-6.845-6.803c0-3.6,2.632-6.803,6.628-6.803c2.498,0,4.605,1.271,5.879,2.939V43.318z"/>
		<path fill="#1A3E6E" d="M178.534,29.144h-2.482c-0.426,0-0.777,0.35-0.777,0.779v1.109c-1.887-1.625-4.127-2.324-6.453-2.324    c-1.926,0-3.641,0.48-5.045,1.316c-3.115,1.842-5.311,5.307-5.311,9.434c0,4.125,2.15,7.547,5.27,9.391    c1.402,0.832,3.332,1.361,5.176,1.361c2.457,0,4.562-0.793,6.23-2.238v1.139c0,2.59-0.395,4.168-1.141,5.312    c-1.01,1.531-2.766,2.371-5.004,2.371c-3.074,0-4.945-1.426-6.381-3.172c0,0-0.008-0.012-0.018-0.016    c-0.289-0.23-0.693-0.209-0.969,0.025c-0.031,0.029-0.078,0.076-0.078,0.076l-2.426,2.246c1.316,2.064,4.693,4.787,10.049,4.787    c4.082,0,7.24-1.889,8.908-5.094c0.832-1.621,1.229-3.686,1.229-6.756V29.923C179.312,29.494,178.96,29.144,178.534,29.144z     M175.142,43.318c-1.402,1.889-3.555,2.943-5.66,2.943c-3.994,0-6.844-3.119-6.844-6.803c0-3.6,2.629-6.803,6.625-6.803    c2.502,0,4.605,1.271,5.879,2.939V43.318z"/>
		<path fill="#1A3E6E" d="M63.165,39.458c0-6.1-4.17-10.75-9.916-10.75c-5.836,0-10.051,4.562-10.051,10.75    c0,6.186,4.654,10.752,10.664,10.752c4.214,0,7.154-1.887,8.691-3.865c0,0-2.271-2.156-2.277-2.162    c-0.258-0.172-0.582-0.137-0.828,0.014c-0.092,0.059-0.25,0.215-0.25,0.215c-1.146,1.123-2.703,2.156-5.292,2.156    c-3.598,0-6.449-2.768-6.668-6.232h15.109c0.422,0,0.785-0.309,0.816-0.693C63.163,39.642,63.165,39.501,63.165,39.458    L63.165,39.458z M47.585,36.826c0.703-2.676,3.119-4.477,5.795-4.477c2.457,0,4.83,1.844,5.443,4.477H47.585z"/>
		<path fill="#1A3E6E" d="M204.092,39.458c0-6.1-4.169-10.75-9.915-10.75c-5.836,0-10.051,4.562-10.051,10.75    c0,6.186,4.652,10.752,10.664,10.752c4.215,0,7.153-1.887,8.683-3.865c0,0-2.262-2.156-2.27-2.162    c-0.26-0.172-0.581-0.137-0.827,0.014c-0.094,0.059-0.25,0.215-0.25,0.215c-1.145,1.123-2.701,2.156-5.291,2.156    c-3.6,0-6.455-2.768-6.672-6.232h15.108c0.422,0,0.791-0.309,0.818-0.693c0,0,0.002-0.004,0.002-0.006l-0.002,0.002    C204.09,39.576,204.092,39.501,204.092,39.458L204.092,39.458z M188.517,36.826c0.699-2.676,3.113-4.477,5.791-4.477    c2.459,0,4.826,1.844,5.441,4.477H188.517z"/>
		<path fill="#1A3E6E" d="M36.205,19.057c1.533,0,2.764,1.227,2.764,2.764c0,1.533-1.23,2.717-2.764,2.717    c-1.535,0-2.721-1.184-2.721-2.717C33.484,20.284,34.669,19.057,36.205,19.057z"/>
		<path fill="#1A3E6E" d="M38.308,51.527c0,2.762-0.393,4.475-1.314,5.791c-1.492,2.152-3.951,3.424-6.758,3.424    c-0.877,0-1.887-0.133-2.457-0.311l0.703-3.059c0.096-0.418,0.518-0.697,0.939-0.617l0.77,0.039c1.186,0,2.459-0.529,3.16-1.451    c0.57-0.744,0.791-1.799,0.791-3.686v-0.779V29.923c0-0.426,0.35-0.779,0.777-0.779h2.611c0.43,0,0.777,0.354,0.777,0.779v20.824    V51.527z"/>
		<path fill="#1A3E6E" d="M85.913,32.349c-1.756-2.234-4.473-3.641-7.504-3.641c-2.984,0-5.09,1.355-6.188,2.414v-1.199    c0-0.426-0.35-0.779-0.775-0.779h-2.482c-0.43,0-0.781,0.354-0.781,0.779v19.07c0,0.426,0.352,0.777,0.781,0.777h2.613    c0.426,0,0.777-0.352,0.777-0.777V35.595c1.227-1.49,3.203-2.939,5.924-2.939c1.711,0,3.291,0.791,4.256,2.02    c0.748,0.92,1.23,2.15,1.23,4.783l0.023,0.773v8.762c0,0.426,0.348,0.777,0.777,0.777h2.611h0.756V39.677    C87.933,36.123,87.229,34.017,85.913,32.349z"/>
		<path fill="#1A3E6E" d="M104.556,33.548c0.004,0,0.014,0,0.02,0.006c-0.006,0-0.01-0.006-0.016-0.006H104.556z"/>
		<path fill="#1A3E6E" d="M93.945,44.867h0.012l0.014-0.018C93.961,44.857,93.955,44.861,93.945,44.867z"/>
		<path fill="#1A3E6E" d="M92.215,47.357c2.279,1.844,5.042,2.854,8.333,2.854c4.041,0,7.684-2.414,7.684-6.32    c0-4.256-4.258-5.705-7.506-6.541c-2.061-0.523-3.688-1.008-3.688-2.412c0-1.621,1.713-2.588,3.732-2.588    c1.398,0,2.664,0.48,3.789,1.199c0.006,0,0.01,0.006,0.016,0.006c0.365,0.205,0.855,0.096,1.105-0.242l1.1-1.521l0.061-0.09    c0.305-0.41,0.266-0.793-0.033-1.098l-0.092-0.09c-1.551-1.066-3.562-1.805-6.209-1.805c-3.688,0-7.638,2.016-7.638,6.449    c0,2.896,2.24,4.477,4.742,5.311c3.027,1.01,6.451,1.141,6.451,3.51c0,1.623-1.799,2.59-3.6,2.59    c-1.824,0-3.684-0.621-5.423-1.797l-0.016-0.012c-0.32-0.254-0.779-0.215-1.053,0.09L92.215,47.357z"/>
		<path fill="#1A3E6E" d="M27.867,31.898c0-0.43-0.348-0.779-0.779-0.779l-12.388,0.004v3.445c0.037,0.4,0.361,0.717,0.768,0.717    l8.009,0.006v7.898c-1.621,1.623-4.3,2.855-7.546,2.855c-6.537,0-11.541-4.699-11.541-11.633c0-6.629,4.873-11.626,11.146-11.626    c2.99,0,5.89,1.232,7.75,2.935h-0.004c0.004,0.004,0.008,0.004,0.01,0.008c0.289,0.279,0.74,0.285,1.043,0.023    c0.016-0.012,0.033-0.016,0.045-0.031h-0.014l1.854-1.823l0,0v0.008c0.008-0.008,0.008-0.016,0.016-0.025    c0.25-0.27,0.264-0.664,0.059-0.959c-0.02-0.031-0.037-0.059-0.059-0.09l0,0l-0.002-0.004c-0.006-0.006-0.006-0.012-0.014-0.02    v0.008c-2.68-2.611-6.578-4.197-10.683-4.197C6.672,18.618,0,25.548,0,34.412C0,43.496,6.758,50.21,15.93,50.21    c4.74,0,9.3-2.371,11.937-5.705V31.898z"/>
	</g>
</g>
</svg>